  0
SECTION
  2
BLOCKS
  0
ENDSEC
  0
SECTION
  2
ENTITIES
  0
LINE
  8
0
 10
-59
 20
-24.5
 11
59
 21
-24.5
  0
LINE
  8
0
 10
59
 20
-24.5
 11
59
 21
24.5
  0
LINE
  8
0
 10
59
 20
24.5
 11
-59
 21
24.5
  0
LINE
  8
0
 10
-59
 20
24.5
 11
-59
 21
-24.5
  0
LINE
  8
0
 10
-58.3
 20
-22
 11
-58.2387
 21
-21.5341
  0
LINE
  8
0
 10
-58.2387
 20
-21.5341
 11
-58.0588
 21
-21.1
  0
LINE
  8
0
 10
-58.0588
 20
-21.1
 11
-57.7728
 21
-20.7272
  0
LINE
  8
0
 10
-57.7728
 20
-20.7272
 11
-57.4
 21
-20.4412
  0
LINE
  8
0
 10
-57.4
 20
-20.4412
 11
-56.9659
 21
-20.2613
  0
LINE
  8
0
 10
-56.9659
 20
-20.2613
 11
-56.5
 21
-20.2
  0
LINE
  8
0
 10
-56.5
 20
-20.2
 11
-56.0341
 21
-20.2613
  0
LINE
  8
0
 10
-56.0341
 20
-20.2613
 11
-55.6
 21
-20.4412
  0
LINE
  8
0
 10
-55.6
 20
-20.4412
 11
-55.2272
 21
-20.7272
  0
LINE
  8
0
 10
-55.2272
 20
-20.7272
 11
-54.9412
 21
-21.1
  0
LINE
  8
0
 10
-54.9412
 20
-21.1
 11
-54.7613
 21
-21.5341
  0
LINE
  8
0
 10
-54.7613
 20
-21.5341
 11
-54.7
 21
-22
  0
LINE
  8
0
 10
-54.7
 20
-22
 11
-54.7613
 21
-22.4659
  0
LINE
  8
0
 10
-54.7613
 20
-22.4659
 11
-54.9412
 21
-22.9
  0
LINE
  8
0
 10
-54.9412
 20
-22.9
 11
-55.2272
 21
-23.2728
  0
LINE
  8
0
 10
-55.2272
 20
-23.2728
 11
-55.6
 21
-23.5588
  0
LINE
  8
0
 10
-55.6
 20
-23.5588
 11
-56.0341
 21
-23.7387
  0
LINE
  8
0
 10
-56.0341
 20
-23.7387
 11
-56.5
 21
-23.8
  0
LINE
  8
0
 10
-56.5
 20
-23.8
 11
-56.9659
 21
-23.7387
  0
LINE
  8
0
 10
-56.9659
 20
-23.7387
 11
-57.4
 21
-23.5588
  0
LINE
  8
0
 10
-57.4
 20
-23.5588
 11
-57.7728
 21
-23.2728
  0
LINE
  8
0
 10
-57.7728
 20
-23.2728
 11
-58.0588
 21
-22.9
  0
LINE
  8
0
 10
-58.0588
 20
-22.9
 11
-58.2387
 21
-22.4659
  0
LINE
  8
0
 10
-58.2387
 20
-22.4659
 11
-58.3
 21
-22
  0
LINE
  8
0
 10
-58.3
 20
22
 11
-58.2387
 21
22.4659
  0
LINE
  8
0
 10
-58.2387
 20
22.4659
 11
-58.0588
 21
22.9
  0
LINE
  8
0
 10
-58.0588
 20
22.9
 11
-57.7728
 21
23.2728
  0
LINE
  8
0
 10
-57.7728
 20
23.2728
 11
-57.4
 21
23.5588
  0
LINE
  8
0
 10
-57.4
 20
23.5588
 11
-56.9659
 21
23.7387
  0
LINE
  8
0
 10
-56.9659
 20
23.7387
 11
-56.5
 21
23.8
  0
LINE
  8
0
 10
-56.5
 20
23.8
 11
-56.0341
 21
23.7387
  0
LINE
  8
0
 10
-56.0341
 20
23.7387
 11
-55.6
 21
23.5588
  0
LINE
  8
0
 10
-55.6
 20
23.5588
 11
-55.2272
 21
23.2728
  0
LINE
  8
0
 10
-55.2272
 20
23.2728
 11
-54.9412
 21
22.9
  0
LINE
  8
0
 10
-54.9412
 20
22.9
 11
-54.7613
 21
22.4659
  0
LINE
  8
0
 10
-54.7613
 20
22.4659
 11
-54.7
 21
22
  0
LINE
  8
0
 10
-54.7
 20
22
 11
-54.7613
 21
21.5341
  0
LINE
  8
0
 10
-54.7613
 20
21.5341
 11
-54.9412
 21
21.1
  0
LINE
  8
0
 10
-54.9412
 20
21.1
 11
-55.2272
 21
20.7272
  0
LINE
  8
0
 10
-55.2272
 20
20.7272
 11
-55.6
 21
20.4412
  0
LINE
  8
0
 10
-55.6
 20
20.4412
 11
-56.0341
 21
20.2613
  0
LINE
  8
0
 10
-56.0341
 20
20.2613
 11
-56.5
 21
20.2
  0
LINE
  8
0
 10
-56.5
 20
20.2
 11
-56.9659
 21
20.2613
  0
LINE
  8
0
 10
-56.9659
 20
20.2613
 11
-57.4
 21
20.4412
  0
LINE
  8
0
 10
-57.4
 20
20.4412
 11
-57.7728
 21
20.7272
  0
LINE
  8
0
 10
-57.7728
 20
20.7272
 11
-58.0588
 21
21.1
  0
LINE
  8
0
 10
-58.0588
 20
21.1
 11
-58.2387
 21
21.5341
  0
LINE
  8
0
 10
-58.2387
 20
21.5341
 11
-58.3
 21
22
  0
LINE
  8
0
 10
-49.5344
 20
-14.1006
 11
-49.5197
 21
-13.6986
  0
LINE
  8
0
 10
-49.5197
 20
-13.6986
 11
-49.4708
 21
-13.0299
  0
LINE
  8
0
 10
-49.4708
 20
-13.0299
 11
-49.3977
 21
-12.6342
  0
LINE
  8
0
 10
-49.3977
 20
-12.6342
 11
-49.2519
 21
-11.9797
  0
LINE
  8
0
 10
-49.2519
 20
-11.9797
 11
-49.122
 21
-11.599
  0
LINE
  8
0
 10
-49.122
 20
-11.599
 11
-48.8825
 21
-10.9727
  0
LINE
  8
0
 10
-48.8825
 20
-10.9727
 11
-48.6985
 21
-10.6149
  0
LINE
  8
0
 10
-48.6985
 20
-10.6149
 11
-48.3703
 21
-10.0302
  0
LINE
  8
0
 10
-48.3703
 20
-10.0302
 11
-48.1362
 21
-9.70296
  0
LINE
  8
0
 10
-48.1362
 20
-9.70296
 11
-47.7264
 21
-9.17224
  0
LINE
  8
0
 10
-47.7264
 20
-9.17224
 11
-47.4472
 21
-8.88261
  0
LINE
  8
0
 10
-47.4472
 20
-8.88261
 11
-46.9645
 21
-8.41721
  0
LINE
  8
0
 10
-46.9645
 20
-8.41721
 11
-46.646
 21
-8.17132
  0
LINE
  8
0
 10
-46.646
 20
-8.17132
 11
-46.1007
 21
-7.78117
  0
LINE
  8
0
 10
-46.1007
 20
-7.78117
 11
-45.7499
 21
-7.58427
  0
LINE
  8
0
 10
-45.7499
 20
-7.58427
 11
-45.1535
 21
-7.27768
  0
LINE
  8
0
 10
-45.1535
 20
-7.27768
 11
-44.7778
 21
-7.13396
  0
LINE
  8
0
 10
-44.7778
 20
-7.13396
 11
-44.1432
 21
-6.91745
  0
LINE
  8
0
 10
-44.1432
 20
-6.91745
 11
-43.7505
 21
-6.82998
  0
LINE
  8
0
 10
-43.7505
 20
-6.82998
 11
-43.0911
 21
-6.70819
  0
LINE
  8
0
 10
-43.0911
 20
-6.70819
 11
-42.6898
 21
-6.67882
  0
LINE
  8
0
 10
-42.6898
 20
-6.67882
 11
-42.0198
 21
-6.65433
  0
LINE
  8
0
 10
-42.0198
 20
-6.65433
 11
-41.6185
 21
-6.6837
  0
LINE
  8
0
 10
-41.6185
 20
-6.6837
 11
-40.952
 21
-6.75703
  0
LINE
  8
0
 10
-40.952
 20
-6.75703
 11
-40.5593
 21
-6.84451
  0
LINE
  8
0
 10
-40.5593
 20
-6.84451
 11
-39.9106
 21
-7.01411
  0
LINE
  8
0
 10
-39.9106
 20
-7.01411
 11
-39.5348
 21
-7.15783
  0
LINE
  8
0
 10
-39.5348
 20
-7.15783
 11
-38.9177
 21
-7.42008
  0
LINE
  8
0
 10
-38.9177
 20
-7.42008
 11
-38.5669
 21
-7.61698
  0
LINE
  8
0
 10
-38.5669
 20
-7.61698
 11
-37.9945
 21
-7.96628
  0
LINE
  8
0
 10
-37.9945
 20
-7.96628
 11
-37.6761
 21
-8.21217
  0
LINE
  8
0
 10
-37.6761
 20
-8.21217
 11
-37.1607
 21
-8.64109
  0
LINE
  8
0
 10
-37.1607
 20
-8.64109
 11
-36.8814
 21
-8.93072
  0
LINE
  8
0
 10
-36.8814
 20
-8.93072
 11
-36.434
 21
-9.43011
  0
LINE
  8
0
 10
-36.434
 20
-9.43011
 11
-36.1999
 21
-9.75731
  0
LINE
  8
0
 10
-36.1999
 20
-9.75731
 11
-35.8299
 21
-10.3165
  0
LINE
  8
0
 10
-35.8299
 20
-10.3165
 11
-35.6459
 21
-10.6743
  0
LINE
  8
0
 10
-35.6459
 20
-10.6743
 11
-35.3613
 21
-11.2815
  0
LINE
  8
0
 10
-35.3613
 20
-11.2815
 11
-35.2314
 21
-11.6622
  0
LINE
  8
0
 10
-35.2314
 20
-11.6622
 11
-35.0383
 21
-12.3043
  0
LINE
  8
0
 10
-35.0383
 20
-12.3043
 11
-34.9652
 21
-12.6999
  0
LINE
  8
0
 10
-34.9652
 20
-12.6999
 11
-34.8675
 21
-13.3633
  0
LINE
  8
0
 10
-34.8675
 20
-13.3633
 11
-34.8529
 21
-13.7654
  0
LINE
  8
0
 10
-34.8529
 20
-13.7654
 11
-34.8529
 21
-14.4359
  0
LINE
  8
0
 10
-34.8529
 20
-14.4359
 11
-34.8969
 21
-14.8358
  0
LINE
  8
0
 10
-34.8969
 20
-14.8358
 11
-34.9945
 21
-15.4992
  0
LINE
  8
0
 10
-34.9945
 20
-15.4992
 11
-35.0962
 21
-15.8884
  0
LINE
  8
0
 10
-35.0962
 20
-15.8884
 11
-35.2894
 21
-16.5305
  0
LINE
  8
0
 10
-35.2894
 20
-16.5305
 11
-35.4468
 21
-16.9008
  0
LINE
  8
0
 10
-35.4468
 20
-16.9008
 11
-35.7314
 21
-17.5079
  0
LINE
  8
0
 10
-35.7314
 20
-17.5079
 11
-35.941
 21
-17.8513
  0
LINE
  8
0
 10
-35.941
 20
-17.8513
 11
-36.3109
 21
-18.4106
  0
LINE
  8
0
 10
-36.3109
 20
-18.4106
 11
-36.5683
 21
-18.7198
  0
LINE
  8
0
 10
-36.5683
 20
-18.7198
 11
-37.0158
 21
-19.2192
  0
LINE
  8
0
 10
-37.0158
 20
-19.2192
 11
-37.3154
 21
-19.4877
  0
LINE
  8
0
 10
-37.3154
 20
-19.4877
 11
-37.8308
 21
-19.9166
  0
LINE
  8
0
 10
-37.8308
 20
-19.9166
 11
-38.1663
 21
-20.1386
  0
LINE
  8
0
 10
-38.1663
 20
-20.1386
 11
-38.7387
 21
-20.4879
  0
LINE
  8
0
 10
-38.7387
 20
-20.4879
 11
-39.103
 21
-20.6587
  0
LINE
  8
0
 10
-39.103
 20
-20.6587
 11
-39.7201
 21
-20.9209
  0
LINE
  8
0
 10
-39.7201
 20
-20.9209
 11
-40.1053
 21
-21.0368
  0
LINE
  8
0
 10
-40.1053
 20
-21.0368
 11
-40.7541
 21
-21.2064
  0
LINE
  8
0
 10
-40.7541
 20
-21.2064
 11
-41.1521
 21
-21.265
  0
LINE
  8
0
 10
-41.1521
 20
-21.265
 11
-41.8186
 21
-21.3383
  0
LINE
  8
0
 10
-41.8186
 20
-21.3383
 11
-42.2209
 21
-21.3383
  0
LINE
  8
0
 10
-42.2209
 20
-21.3383
 11
-42.891
 21
-21.3138
  0
LINE
  8
0
 10
-42.891
 20
-21.3138
 11
-43.289
 21
-21.2553
  0
LINE
  8
0
 10
-43.289
 20
-21.2553
 11
-43.9484
 21
-21.1335
  0
LINE
  8
0
 10
-43.9484
 20
-21.1335
 11
-44.3337
 21
-21.0176
  0
LINE
  8
0
 10
-44.3337
 20
-21.0176
 11
-44.9683
 21
-20.8011
  0
LINE
  8
0
 10
-44.9683
 20
-20.8011
 11
-45.3326
 21
-20.6303
  0
LINE
  8
0
 10
-45.3326
 20
-20.6303
 11
-45.9289
 21
-20.3237
  0
LINE
  8
0
 10
-45.9289
 20
-20.3237
 11
-46.2644
 21
-20.1017
  0
LINE
  8
0
 10
-46.2644
 20
-20.1017
 11
-46.8097
 21
-19.7116
  0
LINE
  8
0
 10
-46.8097
 20
-19.7116
 11
-47.1094
 21
-19.4431
  0
LINE
  8
0
 10
-47.1094
 20
-19.4431
 11
-47.5921
 21
-18.9777
  0
LINE
  8
0
 10
-47.5921
 20
-18.9777
 11
-47.8495
 21
-18.6684
  0
LINE
  8
0
 10
-47.8495
 20
-18.6684
 11
-48.2593
 21
-18.1377
  0
LINE
  8
0
 10
-48.2593
 20
-18.1377
 11
-48.4688
 21
-17.7943
  0
LINE
  8
0
 10
-48.4688
 20
-17.7943
 11
-48.797
 21
-17.2096
  0
LINE
  8
0
 10
-48.797
 20
-17.2096
 11
-48.9544
 21
-16.8393
  0
LINE
  8
0
 10
-48.9544
 20
-16.8393
 11
-49.1939
 21
-16.213
  0
LINE
  8
0
 10
-49.1939
 20
-16.213
 11
-49.2957
 21
-15.8238
  0
LINE
  8
0
 10
-49.2957
 20
-15.8238
 11
-49.4415
 21
-15.1693
  0
LINE
  8
0
 10
-49.4415
 20
-15.1693
 11
-49.4855
 21
-14.7694
  0
LINE
  8
0
 10
-49.4855
 20
-14.7694
 11
-49.5344
 21
-14.1006
  0
LINE
  8
0
 10
-32.6594
 20
-14.1006
 11
-32.6447
 21
-13.6986
  0
LINE
  8
0
 10
-32.6447
 20
-13.6986
 11
-32.5958
 21
-13.0299
  0
LINE
  8
0
 10
-32.5958
 20
-13.0299
 11
-32.5227
 21
-12.6342
  0
LINE
  8
0
 10
-32.5227
 20
-12.6342
 11
-32.3769
 21
-11.9797
  0
LINE
  8
0
 10
-32.3769
 20
-11.9797
 11
-32.247
 21
-11.599
  0
LINE
  8
0
 10
-32.247
 20
-11.599
 11
-32.0075
 21
-10.9727
  0
LINE
  8
0
 10
-32.0075
 20
-10.9727
 11
-31.8235
 21
-10.6149
  0
LINE
  8
0
 10
-31.8235
 20
-10.6149
 11
-31.4953
 21
-10.0302
  0
LINE
  8
0
 10
-31.4953
 20
-10.0302
 11
-31.2612
 21
-9.70296
  0
LINE
  8
0
 10
-31.2612
 20
-9.70296
 11
-30.8514
 21
-9.17224
  0
LINE
  8
0
 10
-30.8514
 20
-9.17224
 11
-30.5722
 21
-8.88261
  0
LINE
  8
0
 10
-30.5722
 20
-8.88261
 11
-30.0895
 21
-8.41721
  0
LINE
  8
0
 10
-30.0895
 20
-8.41721
 11
-29.771
 21
-8.17132
  0
LINE
  8
0
 10
-29.771
 20
-8.17132
 11
-29.2257
 21
-7.78117
  0
LINE
  8
0
 10
-29.2257
 20
-7.78117
 11
-28.8749
 21
-7.58427
  0
LINE
  8
0
 10
-28.8749
 20
-7.58427
 11
-28.2785
 21
-7.27768
  0
LINE
  8
0
 10
-28.2785
 20
-7.27768
 11
-27.9028
 21
-7.13396
  0
LINE
  8
0
 10
-27.9028
 20
-7.13396
 11
-27.2681
 21
-6.91745
  0
LINE
  8
0
 10
-27.2681
 20
-6.91745
 11
-26.8755
 21
-6.82998
  0
LINE
  8
0
 10
-26.8755
 20
-6.82998
 11
-26.2161
 21
-6.70819
  0
LINE
  8
0
 10
-26.2161
 20
-6.70819
 11
-25.8148
 21
-6.67882
  0
LINE
  8
0
 10
-25.8148
 20
-6.67882
 11
-25.1448
 21
-6.65433
  0
LINE
  8
0
 10
-25.1448
 20
-6.65433
 11
-24.7435
 21
-6.6837
  0
LINE
  8
0
 10
-24.7435
 20
-6.6837
 11
-24.077
 21
-6.75703
  0
LINE
  8
0
 10
-24.077
 20
-6.75703
 11
-23.6843
 21
-6.84451
  0
LINE
  8
0
 10
-23.6843
 20
-6.84451
 11
-23.0356
 21
-7.01411
  0
LINE
  8
0
 10
-23.0356
 20
-7.01411
 11
-22.6598
 21
-7.15783
  0
LINE
  8
0
 10
-22.6598
 20
-7.15783
 11
-22.0427
 21
-7.42008
  0
LINE
  8
0
 10
-22.0427
 20
-7.42008
 11
-21.6919
 21
-7.61698
  0
LINE
  8
0
 10
-21.6919
 20
-7.61698
 11
-21.1195
 21
-7.96628
  0
LINE
  8
0
 10
-21.1195
 20
-7.96628
 11
-20.8011
 21
-8.21217
  0
LINE
  8
0
 10
-20.8011
 20
-8.21217
 11
-20.2857
 21
-8.64109
  0
LINE
  8
0
 10
-20.2857
 20
-8.64109
 11
-20.0064
 21
-8.93072
  0
LINE
  8
0
 10
-20.0064
 20
-8.93072
 11
-19.559
 21
-9.43011
  0
LINE
  8
0
 10
-19.559
 20
-9.43011
 11
-19.3249
 21
-9.75731
  0
LINE
  8
0
 10
-19.3249
 20
-9.75731
 11
-18.9549
 21
-10.3165
  0
LINE
  8
0
 10
-18.9549
 20
-10.3165
 11
-18.7709
 21
-10.6743
  0
LINE
  8
0
 10
-18.7709
 20
-10.6743
 11
-18.4863
 21
-11.2815
  0
LINE
  8
0
 10
-18.4863
 20
-11.2815
 11
-18.3564
 21
-11.6622
  0
LINE
  8
0
 10
-18.3564
 20
-11.6622
 11
-18.1633
 21
-12.3043
  0
LINE
  8
0
 10
-18.1633
 20
-12.3043
 11
-18.0902
 21
-12.6999
  0
LINE
  8
0
 10
-18.0902
 20
-12.6999
 11
-17.9926
 21
-13.3633
  0
LINE
  8
0
 10
-17.9926
 20
-13.3633
 11
-17.9779
 21
-13.7654
  0
LINE
  8
0
 10
-17.9779
 20
-13.7654
 11
-17.9779
 21
-14.4359
  0
LINE
  8
0
 10
-17.9779
 20
-14.4359
 11
-18.0219
 21
-14.8358
  0
LINE
  8
0
 10
-18.0219
 20
-14.8358
 11
-18.1195
 21
-15.4992
  0
LINE
  8
0
 10
-18.1195
 20
-15.4992
 11
-18.2212
 21
-15.8884
  0
LINE
  8
0
 10
-18.2212
 20
-15.8884
 11
-18.4144
 21
-16.5305
  0
LINE
  8
0
 10
-18.4144
 20
-16.5305
 11
-18.5718
 21
-16.9008
  0
LINE
  8
0
 10
-18.5718
 20
-16.9008
 11
-18.8564
 21
-17.5079
  0
LINE
  8
0
 10
-18.8564
 20
-17.5079
 11
-19.066
 21
-17.8513
  0
LINE
  8
0
 10
-19.066
 20
-17.8513
 11
-19.4359
 21
-18.4106
  0
LINE
  8
0
 10
-19.4359
 20
-18.4106
 11
-19.6933
 21
-18.7198
  0
LINE
  8
0
 10
-19.6933
 20
-18.7198
 11
-20.1408
 21
-19.2192
  0
LINE
  8
0
 10
-20.1408
 20
-19.2192
 11
-20.4404
 21
-19.4877
  0
LINE
  8
0
 10
-20.4404
 20
-19.4877
 11
-20.9558
 21
-19.9166
  0
LINE
  8
0
 10
-20.9558
 20
-19.9166
 11
-21.2913
 21
-20.1386
  0
LINE
  8
0
 10
-21.2913
 20
-20.1386
 11
-21.8637
 21
-20.4879
  0
LINE
  8
0
 10
-21.8637
 20
-20.4879
 11
-22.228
 21
-20.6587
  0
LINE
  8
0
 10
-22.228
 20
-20.6587
 11
-22.8451
 21
-20.9209
  0
LINE
  8
0
 10
-22.8451
 20
-20.9209
 11
-23.2303
 21
-21.0368
  0
LINE
  8
0
 10
-23.2303
 20
-21.0368
 11
-23.8791
 21
-21.2064
  0
LINE
  8
0
 10
-23.8791
 20
-21.2064
 11
-24.2771
 21
-21.265
  0
LINE
  8
0
 10
-24.2771
 20
-21.265
 11
-24.9436
 21
-21.3383
  0
LINE
  8
0
 10
-24.9436
 20
-21.3383
 11
-25.3459
 21
-21.3383
  0
LINE
  8
0
 10
-25.3459
 20
-21.3383
 11
-26.016
 21
-21.3138
  0
LINE
  8
0
 10
-26.016
 20
-21.3138
 11
-26.414
 21
-21.2553
  0
LINE
  8
0
 10
-26.414
 20
-21.2553
 11
-27.0734
 21
-21.1335
  0
LINE
  8
0
 10
-27.0734
 20
-21.1335
 11
-27.4587
 21
-21.0176
  0
LINE
  8
0
 10
-27.4587
 20
-21.0176
 11
-28.0933
 21
-20.8011
  0
LINE
  8
0
 10
-28.0933
 20
-20.8011
 11
-28.4576
 21
-20.6303
  0
LINE
  8
0
 10
-28.4576
 20
-20.6303
 11
-29.0539
 21
-20.3237
  0
LINE
  8
0
 10
-29.0539
 20
-20.3237
 11
-29.3894
 21
-20.1017
  0
LINE
  8
0
 10
-29.3894
 20
-20.1017
 11
-29.9347
 21
-19.7116
  0
LINE
  8
0
 10
-29.9347
 20
-19.7116
 11
-30.2344
 21
-19.4431
  0
LINE
  8
0
 10
-30.2344
 20
-19.4431
 11
-30.7171
 21
-18.9777
  0
LINE
  8
0
 10
-30.7171
 20
-18.9777
 11
-30.9745
 21
-18.6684
  0
LINE
  8
0
 10
-30.9745
 20
-18.6684
 11
-31.3843
 21
-18.1377
  0
LINE
  8
0
 10
-31.3843
 20
-18.1377
 11
-31.5938
 21
-17.7943
  0
LINE
  8
0
 10
-31.5938
 20
-17.7943
 11
-31.922
 21
-17.2096
  0
LINE
  8
0
 10
-31.922
 20
-17.2096
 11
-32.0794
 21
-16.8393
  0
LINE
  8
0
 10
-32.0794
 20
-16.8393
 11
-32.3189
 21
-16.213
  0
LINE
  8
0
 10
-32.3189
 20
-16.213
 11
-32.4207
 21
-15.8238
  0
LINE
  8
0
 10
-32.4207
 20
-15.8238
 11
-32.5665
 21
-15.1693
  0
LINE
  8
0
 10
-32.5665
 20
-15.1693
 11
-32.6105
 21
-14.7694
  0
LINE
  8
0
 10
-32.6105
 20
-14.7694
 11
-32.6594
 21
-14.1006
  0
LINE
  8
0
 10
-15.7844
 20
-14.1006
 11
-15.7697
 21
-13.6986
  0
LINE
  8
0
 10
-15.7697
 20
-13.6986
 11
-15.7208
 21
-13.0299
  0
LINE
  8
0
 10
-15.7208
 20
-13.0299
 11
-15.6477
 21
-12.6342
  0
LINE
  8
0
 10
-15.6477
 20
-12.6342
 11
-15.5019
 21
-11.9797
  0
LINE
  8
0
 10
-15.5019
 20
-11.9797
 11
-15.372
 21
-11.599
  0
LINE
  8
0
 10
-15.372
 20
-11.599
 11
-15.1325
 21
-10.9727
  0
LINE
  8
0
 10
-15.1325
 20
-10.9727
 11
-14.9485
 21
-10.6149
  0
LINE
  8
0
 10
-14.9485
 20
-10.6149
 11
-14.6203
 21
-10.0302
  0
LINE
  8
0
 10
-14.6203
 20
-10.0302
 11
-14.3862
 21
-9.70296
  0
LINE
  8
0
 10
-14.3862
 20
-9.70296
 11
-13.9764
 21
-9.17224
  0
LINE
  8
0
 10
-13.9764
 20
-9.17224
 11
-13.6972
 21
-8.88261
  0
LINE
  8
0
 10
-13.6972
 20
-8.88261
 11
-13.2145
 21
-8.41721
  0
LINE
  8
0
 10
-13.2145
 20
-8.41721
 11
-12.896
 21
-8.17132
  0
LINE
  8
0
 10
-12.896
 20
-8.17132
 11
-12.3507
 21
-7.78117
  0
LINE
  8
0
 10
-12.3507
 20
-7.78117
 11
-11.9999
 21
-7.58427
  0
LINE
  8
0
 10
-11.9999
 20
-7.58427
 11
-11.4035
 21
-7.27768
  0
LINE
  8
0
 10
-11.4035
 20
-7.27768
 11
-11.0278
 21
-7.13396
  0
LINE
  8
0
 10
-11.0278
 20
-7.13396
 11
-10.3931
 21
-6.91745
  0
LINE
  8
0
 10
-10.3931
 20
-6.91745
 11
-10.0005
 21
-6.82998
  0
LINE
  8
0
 10
-10.0005
 20
-6.82998
 11
-9.34108
 21
-6.70819
  0
LINE
  8
0
 10
-9.34108
 20
-6.70819
 11
-8.93984
 21
-6.67882
  0
LINE
  8
0
 10
-8.93984
 20
-6.67882
 11
-8.26976
 21
-6.65433
  0
LINE
  8
0
 10
-8.26976
 20
-6.65433
 11
-7.86851
 21
-6.6837
  0
LINE
  8
0
 10
-7.86851
 20
-6.6837
 11
-7.202
 21
-6.75703
  0
LINE
  8
0
 10
-7.202
 20
-6.75703
 11
-6.80931
 21
-6.84451
  0
LINE
  8
0
 10
-6.80931
 20
-6.84451
 11
-6.16059
 21
-7.01411
  0
LINE
  8
0
 10
-6.16059
 20
-7.01411
 11
-5.78482
 21
-7.15783
  0
LINE
  8
0
 10
-5.78482
 20
-7.15783
 11
-5.1677
 21
-7.42008
  0
LINE
  8
0
 10
-5.1677
 20
-7.42008
 11
-4.81686
 21
-7.61698
  0
LINE
  8
0
 10
-4.81686
 20
-7.61698
 11
-4.2445
 21
-7.96628
  0
LINE
  8
0
 10
-4.2445
 20
-7.96628
 11
-3.92606
 21
-8.21217
  0
LINE
  8
0
 10
-3.92606
 20
-8.21217
 11
-3.41066
 21
-8.64109
  0
LINE
  8
0
 10
-3.41066
 20
-8.64109
 11
-3.13143
 21
-8.93072
  0
LINE
  8
0
 10
-3.13143
 20
-8.93072
 11
-2.68397
 21
-9.43011
  0
LINE
  8
0
 10
-2.68397
 20
-9.43011
 11
-2.44988
 21
-9.75731
  0
LINE
  8
0
 10
-2.44988
 20
-9.75731
 11
-2.0799
 21
-10.3165
  0
LINE
  8
0
 10
-2.0799
 20
-10.3165
 11
-1.89594
 21
-10.6743
  0
LINE
  8
0
 10
-1.89594
 20
-10.6743
 11
-1.61133
 21
-11.2815
  0
LINE
  8
0
 10
-1.61133
 20
-11.2815
 11
-1.48143
 21
-11.6622
  0
LINE
  8
0
 10
-1.48143
 20
-11.6622
 11
-1.28826
 21
-12.3043
  0
LINE
  8
0
 10
-1.28826
 20
-12.3043
 11
-1.21518
 21
-12.6999
  0
LINE
  8
0
 10
-1.21518
 20
-12.6999
 11
-1.11755
 21
-13.3633
  0
LINE
  8
0
 10
-1.11755
 20
-13.3633
 11
-1.10286
 21
-13.7654
  0
LINE
  8
0
 10
-1.10286
 20
-13.7654
 11
-1.10286
 21
-14.4359
  0
LINE
  8
0
 10
-1.10286
 20
-14.4359
 11
-1.14686
 21
-14.8358
  0
LINE
  8
0
 10
-1.14686
 20
-14.8358
 11
-1.24449
 21
-15.4992
  0
LINE
  8
0
 10
-1.24449
 20
-15.4992
 11
-1.34625
 21
-15.8884
  0
LINE
  8
0
 10
-1.34625
 20
-15.8884
 11
-1.53943
 21
-16.5305
  0
LINE
  8
0
 10
-1.53943
 20
-16.5305
 11
-1.69677
 21
-16.9008
  0
LINE
  8
0
 10
-1.69677
 20
-16.9008
 11
-1.98138
 21
-17.5079
  0
LINE
  8
0
 10
-1.98138
 20
-17.5079
 11
-2.19097
 21
-17.8513
  0
LINE
  8
0
 10
-2.19097
 20
-17.8513
 11
-2.56094
 21
-18.4106
  0
LINE
  8
0
 10
-2.56094
 20
-18.4106
 11
-2.8183
 21
-18.7198
  0
LINE
  8
0
 10
-2.8183
 20
-18.7198
 11
-3.26575
 21
-19.2192
  0
LINE
  8
0
 10
-3.26575
 20
-19.2192
 11
-3.56539
 21
-19.4877
  0
LINE
  8
0
 10
-3.56539
 20
-19.4877
 11
-4.08079
 21
-19.9166
  0
LINE
  8
0
 10
-4.08079
 20
-19.9166
 11
-4.41632
 21
-20.1386
  0
LINE
  8
0
 10
-4.41632
 20
-20.1386
 11
-4.98868
 21
-20.4879
  0
LINE
  8
0
 10
-4.98868
 20
-20.4879
 11
-5.35296
 21
-20.6587
  0
LINE
  8
0
 10
-5.35296
 20
-20.6587
 11
-5.97008
 21
-20.9209
  0
LINE
  8
0
 10
-5.97008
 20
-20.9209
 11
-6.35533
 21
-21.0368
  0
LINE
  8
0
 10
-6.35533
 20
-21.0368
 11
-7.00406
 21
-21.2064
  0
LINE
  8
0
 10
-7.00406
 20
-21.2064
 11
-7.40209
 21
-21.265
  0
LINE
  8
0
 10
-7.40209
 20
-21.265
 11
-8.0686
 21
-21.3383
  0
LINE
  8
0
 10
-8.0686
 20
-21.3383
 11
-8.47091
 21
-21.3383
  0
LINE
  8
0
 10
-8.47091
 20
-21.3383
 11
-9.141
 21
-21.3138
  0
LINE
  8
0
 10
-9.141
 20
-21.3138
 11
-9.53903
 21
-21.2553
  0
LINE
  8
0
 10
-9.53903
 20
-21.2553
 11
-10.1984
 21
-21.1335
  0
LINE
  8
0
 10
-10.1984
 20
-21.1335
 11
-10.5837
 21
-21.0176
  0
LINE
  8
0
 10
-10.5837
 20
-21.0176
 11
-11.2183
 21
-20.8011
  0
LINE
  8
0
 10
-11.2183
 20
-20.8011
 11
-11.5826
 21
-20.6303
  0
LINE
  8
0
 10
-11.5826
 20
-20.6303
 11
-12.1789
 21
-20.3237
  0
LINE
  8
0
 10
-12.1789
 20
-20.3237
 11
-12.5144
 21
-20.1017
  0
LINE
  8
0
 10
-12.5144
 20
-20.1017
 11
-13.0598
 21
-19.7116
  0
LINE
  8
0
 10
-13.0598
 20
-19.7116
 11
-13.3594
 21
-19.4431
  0
LINE
  8
0
 10
-13.3594
 20
-19.4431
 11
-13.8421
 21
-18.9777
  0
LINE
  8
0
 10
-13.8421
 20
-18.9777
 11
-14.0995
 21
-18.6684
  0
LINE
  8
0
 10
-14.0995
 20
-18.6684
 11
-14.5093
 21
-18.1377
  0
LINE
  8
0
 10
-14.5093
 20
-18.1377
 11
-14.7188
 21
-17.7943
  0
LINE
  8
0
 10
-14.7188
 20
-17.7943
 11
-15.047
 21
-17.2096
  0
LINE
  8
0
 10
-15.047
 20
-17.2096
 11
-15.2044
 21
-16.8393
  0
LINE
  8
0
 10
-15.2044
 20
-16.8393
 11
-15.4439
 21
-16.213
  0
LINE
  8
0
 10
-15.4439
 20
-16.213
 11
-15.5457
 21
-15.8238
  0
LINE
  8
0
 10
-15.5457
 20
-15.8238
 11
-15.6914
 21
-15.1693
  0
LINE
  8
0
 10
-15.6914
 20
-15.1693
 11
-15.7355
 21
-14.7694
  0
LINE
  8
0
 10
-15.7355
 20
-14.7694
 11
-15.7844
 21
-14.1006
  0
LINE
  8
0
 10
-1.8
 20
0
 11
-1.73867
 21
0.465874
  0
LINE
  8
0
 10
-1.73867
 20
0.465874
 11
-1.55885
 21
0.9
  0
LINE
  8
0
 10
-1.55885
 20
0.9
 11
-1.27279
 21
1.27279
  0
LINE
  8
0
 10
-1.27279
 20
1.27279
 11
-0.9
 21
1.55885
  0
LINE
  8
0
 10
-0.9
 20
1.55885
 11
-0.465874
 21
1.73867
  0
LINE
  8
0
 10
-0.465874
 20
1.73867
 11
0
 21
1.8
  0
LINE
  8
0
 10
0
 20
1.8
 11
0.465874
 21
1.73867
  0
LINE
  8
0
 10
0.465874
 20
1.73867
 11
0.9
 21
1.55885
  0
LINE
  8
0
 10
0.9
 20
1.55885
 11
1.27279
 21
1.27279
  0
LINE
  8
0
 10
1.27279
 20
1.27279
 11
1.55885
 21
0.9
  0
LINE
  8
0
 10
1.55885
 20
0.9
 11
1.73867
 21
0.465874
  0
LINE
  8
0
 10
1.73867
 20
0.465874
 11
1.8
 21
0
  0
LINE
  8
0
 10
1.8
 20
0
 11
1.73867
 21
-0.465874
  0
LINE
  8
0
 10
1.73867
 20
-0.465874
 11
1.55885
 21
-0.9
  0
LINE
  8
0
 10
1.55885
 20
-0.9
 11
1.27279
 21
-1.27279
  0
LINE
  8
0
 10
1.27279
 20
-1.27279
 11
0.9
 21
-1.55885
  0
LINE
  8
0
 10
0.9
 20
-1.55885
 11
0.465874
 21
-1.73867
  0
LINE
  8
0
 10
0.465874
 20
-1.73867
 11
0
 21
-1.8
  0
LINE
  8
0
 10
0
 20
-1.8
 11
-0.465874
 21
-1.73867
  0
LINE
  8
0
 10
-0.465874
 20
-1.73867
 11
-0.9
 21
-1.55885
  0
LINE
  8
0
 10
-0.9
 20
-1.55885
 11
-1.27279
 21
-1.27279
  0
LINE
  8
0
 10
-1.27279
 20
-1.27279
 11
-1.55885
 21
-0.9
  0
LINE
  8
0
 10
-1.55885
 20
-0.9
 11
-1.73867
 21
-0.465874
  0
LINE
  8
0
 10
-1.73867
 20
-0.465874
 11
-1.8
 21
0
  0
LINE
  8
0
 10
1.0906
 20
-14.1006
 11
1.1053
 21
-13.6986
  0
LINE
  8
0
 10
1.1053
 20
-13.6986
 11
1.15424
 21
-13.0299
  0
LINE
  8
0
 10
1.15424
 20
-13.0299
 11
1.22732
 21
-12.6342
  0
LINE
  8
0
 10
1.22732
 20
-12.6342
 11
1.37311
 21
-11.9797
  0
LINE
  8
0
 10
1.37311
 20
-11.9797
 11
1.50301
 21
-11.599
  0
LINE
  8
0
 10
1.50301
 20
-11.599
 11
1.74255
 21
-10.9727
  0
LINE
  8
0
 10
1.74255
 20
-10.9727
 11
1.9265
 21
-10.6149
  0
LINE
  8
0
 10
1.9265
 20
-10.6149
 11
2.25467
 21
-10.0302
  0
LINE
  8
0
 10
2.25467
 20
-10.0302
 11
2.48876
 21
-9.70296
  0
LINE
  8
0
 10
2.48876
 20
-9.70296
 11
2.89857
 21
-9.17224
  0
LINE
  8
0
 10
2.89857
 20
-9.17224
 11
3.17781
 21
-8.88261
  0
LINE
  8
0
 10
3.17781
 20
-8.88261
 11
3.66053
 21
-8.41721
  0
LINE
  8
0
 10
3.66053
 20
-8.41721
 11
3.97896
 21
-8.17132
  0
LINE
  8
0
 10
3.97896
 20
-8.17132
 11
4.52429
 21
-7.78117
  0
LINE
  8
0
 10
4.52429
 20
-7.78117
 11
4.87513
 21
-7.58427
  0
LINE
  8
0
 10
4.87513
 20
-7.58427
 11
5.47146
 21
-7.27768
  0
LINE
  8
0
 10
5.47146
 20
-7.27768
 11
5.84723
 21
-7.13396
  0
LINE
  8
0
 10
5.84723
 20
-7.13396
 11
6.48185
 21
-6.91745
  0
LINE
  8
0
 10
6.48185
 20
-6.91745
 11
6.87454
 21
-6.82998
  0
LINE
  8
0
 10
6.87454
 20
-6.82998
 11
7.53392
 21
-6.70819
  0
LINE
  8
0
 10
7.53392
 20
-6.70819
 11
7.93516
 21
-6.67882
  0
LINE
  8
0
 10
7.93516
 20
-6.67882
 11
8.60524
 21
-6.65433
  0
LINE
  8
0
 10
8.60524
 20
-6.65433
 11
9.00649
 21
-6.6837
  0
LINE
  8
0
 10
9.00649
 20
-6.6837
 11
9.67299
 21
-6.75703
  0
LINE
  8
0
 10
9.67299
 20
-6.75703
 11
10.0657
 21
-6.84451
  0
LINE
  8
0
 10
10.0657
 20
-6.84451
 11
10.7144
 21
-7.01411
  0
LINE
  8
0
 10
10.7144
 20
-7.01411
 11
11.0902
 21
-7.15783
  0
LINE
  8
0
 10
11.0902
 20
-7.15783
 11
11.7073
 21
-7.42008
  0
LINE
  8
0
 10
11.7073
 20
-7.42008
 11
12.0581
 21
-7.61698
  0
LINE
  8
0
 10
12.0581
 20
-7.61698
 11
12.6305
 21
-7.96628
  0
LINE
  8
0
 10
12.6305
 20
-7.96628
 11
12.9489
 21
-8.21217
  0
LINE
  8
0
 10
12.9489
 20
-8.21217
 11
13.4643
 21
-8.64109
  0
LINE
  8
0
 10
13.4643
 20
-8.64109
 11
13.7436
 21
-8.93072
  0
LINE
  8
0
 10
13.7436
 20
-8.93072
 11
14.191
 21
-9.43011
  0
LINE
  8
0
 10
14.191
 20
-9.43011
 11
14.4251
 21
-9.75731
  0
LINE
  8
0
 10
14.4251
 20
-9.75731
 11
14.7951
 21
-10.3165
  0
LINE
  8
0
 10
14.7951
 20
-10.3165
 11
14.9791
 21
-10.6743
  0
LINE
  8
0
 10
14.9791
 20
-10.6743
 11
15.2637
 21
-11.2815
  0
LINE
  8
0
 10
15.2637
 20
-11.2815
 11
15.3936
 21
-11.6622
  0
LINE
  8
0
 10
15.3936
 20
-11.6622
 11
15.5867
 21
-12.3043
  0
LINE
  8
0
 10
15.5867
 20
-12.3043
 11
15.6598
 21
-12.6999
  0
LINE
  8
0
 10
15.6598
 20
-12.6999
 11
15.7575
 21
-13.3633
  0
LINE
  8
0
 10
15.7575
 20
-13.3633
 11
15.7721
 21
-13.7654
  0
LINE
  8
0
 10
15.7721
 20
-13.7654
 11
15.7721
 21
-14.4359
  0
LINE
  8
0
 10
15.7721
 20
-14.4359
 11
15.7281
 21
-14.8358
  0
LINE
  8
0
 10
15.7281
 20
-14.8358
 11
15.6305
 21
-15.4992
  0
LINE
  8
0
 10
15.6305
 20
-15.4992
 11
15.5288
 21
-15.8884
  0
LINE
  8
0
 10
15.5288
 20
-15.8884
 11
15.3356
 21
-16.5305
  0
LINE
  8
0
 10
15.3356
 20
-16.5305
 11
15.1782
 21
-16.9008
  0
LINE
  8
0
 10
15.1782
 20
-16.9008
 11
14.8936
 21
-17.5079
  0
LINE
  8
0
 10
14.8936
 20
-17.5079
 11
14.684
 21
-17.8513
  0
LINE
  8
0
 10
14.684
 20
-17.8513
 11
14.3141
 21
-18.4106
  0
LINE
  8
0
 10
14.3141
 20
-18.4106
 11
14.0567
 21
-18.7198
  0
LINE
  8
0
 10
14.0567
 20
-18.7198
 11
13.6092
 21
-19.2192
  0
LINE
  8
0
 10
13.6092
 20
-19.2192
 11
13.3096
 21
-19.4877
  0
LINE
  8
0
 10
13.3096
 20
-19.4877
 11
12.7942
 21
-19.9166
  0
LINE
  8
0
 10
12.7942
 20
-19.9166
 11
12.4587
 21
-20.1386
  0
LINE
  8
0
 10
12.4587
 20
-20.1386
 11
11.8863
 21
-20.4879
  0
LINE
  8
0
 10
11.8863
 20
-20.4879
 11
11.522
 21
-20.6587
  0
LINE
  8
0
 10
11.522
 20
-20.6587
 11
10.9049
 21
-20.9209
  0
LINE
  8
0
 10
10.9049
 20
-20.9209
 11
10.5197
 21
-21.0368
  0
LINE
  8
0
 10
10.5197
 20
-21.0368
 11
9.87094
 21
-21.2064
  0
LINE
  8
0
 10
9.87094
 20
-21.2064
 11
9.47291
 21
-21.265
  0
LINE
  8
0
 10
9.47291
 20
-21.265
 11
8.8064
 21
-21.3383
  0
LINE
  8
0
 10
8.8064
 20
-21.3383
 11
8.40409
 21
-21.3383
  0
LINE
  8
0
 10
8.40409
 20
-21.3383
 11
7.734
 21
-21.3138
  0
LINE
  8
0
 10
7.734
 20
-21.3138
 11
7.33597
 21
-21.2553
  0
LINE
  8
0
 10
7.33597
 20
-21.2553
 11
6.6766
 21
-21.1335
  0
LINE
  8
0
 10
6.6766
 20
-21.1335
 11
6.29134
 21
-21.0176
  0
LINE
  8
0
 10
6.29134
 20
-21.0176
 11
5.65672
 21
-20.8011
  0
LINE
  8
0
 10
5.65672
 20
-20.8011
 11
5.29245
 21
-20.6303
  0
LINE
  8
0
 10
5.29245
 20
-20.6303
 11
4.69612
 21
-20.3237
  0
LINE
  8
0
 10
4.69612
 20
-20.3237
 11
4.36058
 21
-20.1017
  0
LINE
  8
0
 10
4.36058
 20
-20.1017
 11
3.81525
 21
-19.7116
  0
LINE
  8
0
 10
3.81525
 20
-19.7116
 11
3.51562
 21
-19.4431
  0
LINE
  8
0
 10
3.51562
 20
-19.4431
 11
3.0329
 21
-18.9777
  0
LINE
  8
0
 10
3.0329
 20
-18.9777
 11
2.77555
 21
-18.6684
  0
LINE
  8
0
 10
2.77555
 20
-18.6684
 11
2.36574
 21
-18.1377
  0
LINE
  8
0
 10
2.36574
 20
-18.1377
 11
2.15615
 21
-17.7943
  0
LINE
  8
0
 10
2.15615
 20
-17.7943
 11
1.82799
 21
-17.2096
  0
LINE
  8
0
 10
1.82799
 20
-17.2096
 11
1.67064
 21
-16.8393
  0
LINE
  8
0
 10
1.67064
 20
-16.8393
 11
1.4311
 21
-16.213
  0
LINE
  8
0
 10
1.4311
 20
-16.213
 11
1.32934
 21
-15.8238
  0
LINE
  8
0
 10
1.32934
 20
-15.8238
 11
1.18355
 21
-15.1693
  0
LINE
  8
0
 10
1.18355
 20
-15.1693
 11
1.13955
 21
-14.7694
  0
LINE
  8
0
 10
1.13955
 20
-14.7694
 11
1.0906
 21
-14.1006
  0
LINE
  8
0
 10
17.9656
 20
-14.1006
 11
17.9803
 21
-13.6986
  0
LINE
  8
0
 10
17.9803
 20
-13.6986
 11
18.0292
 21
-13.0299
  0
LINE
  8
0
 10
18.0292
 20
-13.0299
 11
18.1023
 21
-12.6342
  0
LINE
  8
0
 10
18.1023
 20
-12.6342
 11
18.2481
 21
-11.9797
  0
LINE
  8
0
 10
18.2481
 20
-11.9797
 11
18.378
 21
-11.599
  0
LINE
  8
0
 10
18.378
 20
-11.599
 11
18.6175
 21
-10.9727
  0
LINE
  8
0
 10
18.6175
 20
-10.9727
 11
18.8015
 21
-10.6149
  0
LINE
  8
0
 10
18.8015
 20
-10.6149
 11
19.1297
 21
-10.0302
  0
LINE
  8
0
 10
19.1297
 20
-10.0302
 11
19.3638
 21
-9.70296
  0
LINE
  8
0
 10
19.3638
 20
-9.70296
 11
19.7736
 21
-9.17224
  0
LINE
  8
0
 10
19.7736
 20
-9.17224
 11
20.0528
 21
-8.88261
  0
LINE
  8
0
 10
20.0528
 20
-8.88261
 11
20.5355
 21
-8.41721
  0
LINE
  8
0
 10
20.5355
 20
-8.41721
 11
20.854
 21
-8.17132
  0
LINE
  8
0
 10
20.854
 20
-8.17132
 11
21.3993
 21
-7.78117
  0
LINE
  8
0
 10
21.3993
 20
-7.78117
 11
21.7501
 21
-7.58427
  0
LINE
  8
0
 10
21.7501
 20
-7.58427
 11
22.3465
 21
-7.27768
  0
LINE
  8
0
 10
22.3465
 20
-7.27768
 11
22.7222
 21
-7.13396
  0
LINE
  8
0
 10
22.7222
 20
-7.13396
 11
23.3569
 21
-6.91745
  0
LINE
  8
0
 10
23.3569
 20
-6.91745
 11
23.7495
 21
-6.82998
  0
LINE
  8
0
 10
23.7495
 20
-6.82998
 11
24.4089
 21
-6.70819
  0
LINE
  8
0
 10
24.4089
 20
-6.70819
 11
24.8102
 21
-6.67882
  0
LINE
  8
0
 10
24.8102
 20
-6.67882
 11
25.4802
 21
-6.65433
  0
LINE
  8
0
 10
25.4802
 20
-6.65433
 11
25.8815
 21
-6.6837
  0
LINE
  8
0
 10
25.8815
 20
-6.6837
 11
26.548
 21
-6.75703
  0
LINE
  8
0
 10
26.548
 20
-6.75703
 11
26.9407
 21
-6.84451
  0
LINE
  8
0
 10
26.9407
 20
-6.84451
 11
27.5894
 21
-7.01411
  0
LINE
  8
0
 10
27.5894
 20
-7.01411
 11
27.9652
 21
-7.15783
  0
LINE
  8
0
 10
27.9652
 20
-7.15783
 11
28.5823
 21
-7.42008
  0
LINE
  8
0
 10
28.5823
 20
-7.42008
 11
28.9331
 21
-7.61698
  0
LINE
  8
0
 10
28.9331
 20
-7.61698
 11
29.5055
 21
-7.96628
  0
LINE
  8
0
 10
29.5055
 20
-7.96628
 11
29.8239
 21
-8.21217
  0
LINE
  8
0
 10
29.8239
 20
-8.21217
 11
30.3393
 21
-8.64109
  0
LINE
  8
0
 10
30.3393
 20
-8.64109
 11
30.6186
 21
-8.93072
  0
LINE
  8
0
 10
30.6186
 20
-8.93072
 11
31.066
 21
-9.43011
  0
LINE
  8
0
 10
31.066
 20
-9.43011
 11
31.3001
 21
-9.75731
  0
LINE
  8
0
 10
31.3001
 20
-9.75731
 11
31.6701
 21
-10.3165
  0
LINE
  8
0
 10
31.6701
 20
-10.3165
 11
31.8541
 21
-10.6743
  0
LINE
  8
0
 10
31.8541
 20
-10.6743
 11
32.1387
 21
-11.2815
  0
LINE
  8
0
 10
32.1387
 20
-11.2815
 11
32.2686
 21
-11.6622
  0
LINE
  8
0
 10
32.2686
 20
-11.6622
 11
32.4617
 21
-12.3043
  0
LINE
  8
0
 10
32.4617
 20
-12.3043
 11
32.5348
 21
-12.6999
  0
LINE
  8
0
 10
32.5348
 20
-12.6999
 11
32.6325
 21
-13.3633
  0
LINE
  8
0
 10
32.6325
 20
-13.3633
 11
32.6471
 21
-13.7654
  0
LINE
  8
0
 10
32.6471
 20
-13.7654
 11
32.6471
 21
-14.4359
  0
LINE
  8
0
 10
32.6471
 20
-14.4359
 11
32.6031
 21
-14.8358
  0
LINE
  8
0
 10
32.6031
 20
-14.8358
 11
32.5055
 21
-15.4992
  0
LINE
  8
0
 10
32.5055
 20
-15.4992
 11
32.4038
 21
-15.8884
  0
LINE
  8
0
 10
32.4038
 20
-15.8884
 11
32.2106
 21
-16.5305
  0
LINE
  8
0
 10
32.2106
 20
-16.5305
 11
32.0532
 21
-16.9008
  0
LINE
  8
0
 10
32.0532
 20
-16.9008
 11
31.7686
 21
-17.5079
  0
LINE
  8
0
 10
31.7686
 20
-17.5079
 11
31.559
 21
-17.8513
  0
LINE
  8
0
 10
31.559
 20
-17.8513
 11
31.1891
 21
-18.4106
  0
LINE
  8
0
 10
31.1891
 20
-18.4106
 11
30.9317
 21
-18.7198
  0
LINE
  8
0
 10
30.9317
 20
-18.7198
 11
30.4842
 21
-19.2192
  0
LINE
  8
0
 10
30.4842
 20
-19.2192
 11
30.1846
 21
-19.4877
  0
LINE
  8
0
 10
30.1846
 20
-19.4877
 11
29.6692
 21
-19.9166
  0
LINE
  8
0
 10
29.6692
 20
-19.9166
 11
29.3337
 21
-20.1386
  0
LINE
  8
0
 10
29.3337
 20
-20.1386
 11
28.7613
 21
-20.4879
  0
LINE
  8
0
 10
28.7613
 20
-20.4879
 11
28.397
 21
-20.6587
  0
LINE
  8
0
 10
28.397
 20
-20.6587
 11
27.7799
 21
-20.9209
  0
LINE
  8
0
 10
27.7799
 20
-20.9209
 11
27.3947
 21
-21.0368
  0
LINE
  8
0
 10
27.3947
 20
-21.0368
 11
26.7459
 21
-21.2064
  0
LINE
  8
0
 10
26.7459
 20
-21.2064
 11
26.3479
 21
-21.265
  0
LINE
  8
0
 10
26.3479
 20
-21.265
 11
25.6814
 21
-21.3383
  0
LINE
  8
0
 10
25.6814
 20
-21.3383
 11
25.2791
 21
-21.3383
  0
LINE
  8
0
 10
25.2791
 20
-21.3383
 11
24.609
 21
-21.3138
  0
LINE
  8
0
 10
24.609
 20
-21.3138
 11
24.211
 21
-21.2553
  0
LINE
  8
0
 10
24.211
 20
-21.2553
 11
23.5516
 21
-21.1335
  0
LINE
  8
0
 10
23.5516
 20
-21.1335
 11
23.1663
 21
-21.0176
  0
LINE
  8
0
 10
23.1663
 20
-21.0176
 11
22.5317
 21
-20.8011
  0
LINE
  8
0
 10
22.5317
 20
-20.8011
 11
22.1674
 21
-20.6303
  0
LINE
  8
0
 10
22.1674
 20
-20.6303
 11
21.5711
 21
-20.3237
  0
LINE
  8
0
 10
21.5711
 20
-20.3237
 11
21.2356
 21
-20.1017
  0
LINE
  8
0
 10
21.2356
 20
-20.1017
 11
20.6903
 21
-19.7116
  0
LINE
  8
0
 10
20.6903
 20
-19.7116
 11
20.3906
 21
-19.4431
  0
LINE
  8
0
 10
20.3906
 20
-19.4431
 11
19.9079
 21
-18.9777
  0
LINE
  8
0
 10
19.9079
 20
-18.9777
 11
19.6505
 21
-18.6684
  0
LINE
  8
0
 10
19.6505
 20
-18.6684
 11
19.2407
 21
-18.1377
  0
LINE
  8
0
 10
19.2407
 20
-18.1377
 11
19.0312
 21
-17.7943
  0
LINE
  8
0
 10
19.0312
 20
-17.7943
 11
18.703
 21
-17.2096
  0
LINE
  8
0
 10
18.703
 20
-17.2096
 11
18.5456
 21
-16.8393
  0
LINE
  8
0
 10
18.5456
 20
-16.8393
 11
18.3061
 21
-16.213
  0
LINE
  8
0
 10
18.3061
 20
-16.213
 11
18.2043
 21
-15.8238
  0
LINE
  8
0
 10
18.2043
 20
-15.8238
 11
18.0586
 21
-15.1693
  0
LINE
  8
0
 10
18.0586
 20
-15.1693
 11
18.0145
 21
-14.7694
  0
LINE
  8
0
 10
18.0145
 20
-14.7694
 11
17.9656
 21
-14.1006
  0
LINE
  8
0
 10
34.8406
 20
-14.1006
 11
34.8553
 21
-13.6986
  0
LINE
  8
0
 10
34.8553
 20
-13.6986
 11
34.9042
 21
-13.0299
  0
LINE
  8
0
 10
34.9042
 20
-13.0299
 11
34.9773
 21
-12.6342
  0
LINE
  8
0
 10
34.9773
 20
-12.6342
 11
35.1231
 21
-11.9797
  0
LINE
  8
0
 10
35.1231
 20
-11.9797
 11
35.253
 21
-11.599
  0
LINE
  8
0
 10
35.253
 20
-11.599
 11
35.4925
 21
-10.9727
  0
LINE
  8
0
 10
35.4925
 20
-10.9727
 11
35.6765
 21
-10.6149
  0
LINE
  8
0
 10
35.6765
 20
-10.6149
 11
36.0047
 21
-10.0302
  0
LINE
  8
0
 10
36.0047
 20
-10.0302
 11
36.2388
 21
-9.70296
  0
LINE
  8
0
 10
36.2388
 20
-9.70296
 11
36.6486
 21
-9.17224
  0
LINE
  8
0
 10
36.6486
 20
-9.17224
 11
36.9278
 21
-8.88261
  0
LINE
  8
0
 10
36.9278
 20
-8.88261
 11
37.4105
 21
-8.41721
  0
LINE
  8
0
 10
37.4105
 20
-8.41721
 11
37.729
 21
-8.17132
  0
LINE
  8
0
 10
37.729
 20
-8.17132
 11
38.2743
 21
-7.78117
  0
LINE
  8
0
 10
38.2743
 20
-7.78117
 11
38.6251
 21
-7.58427
  0
LINE
  8
0
 10
38.6251
 20
-7.58427
 11
39.2215
 21
-7.27768
  0
LINE
  8
0
 10
39.2215
 20
-7.27768
 11
39.5972
 21
-7.13396
  0
LINE
  8
0
 10
39.5972
 20
-7.13396
 11
40.2318
 21
-6.91745
  0
LINE
  8
0
 10
40.2318
 20
-6.91745
 11
40.6245
 21
-6.82998
  0
LINE
  8
0
 10
40.6245
 20
-6.82998
 11
41.2839
 21
-6.70819
  0
LINE
  8
0
 10
41.2839
 20
-6.70819
 11
41.6852
 21
-6.67882
  0
LINE
  8
0
 10
41.6852
 20
-6.67882
 11
42.3552
 21
-6.65433
  0
LINE
  8
0
 10
42.3552
 20
-6.65433
 11
42.7565
 21
-6.6837
  0
LINE
  8
0
 10
42.7565
 20
-6.6837
 11
43.423
 21
-6.75703
  0
LINE
  8
0
 10
43.423
 20
-6.75703
 11
43.8157
 21
-6.84451
  0
LINE
  8
0
 10
43.8157
 20
-6.84451
 11
44.4644
 21
-7.01411
  0
LINE
  8
0
 10
44.4644
 20
-7.01411
 11
44.8402
 21
-7.15783
  0
LINE
  8
0
 10
44.8402
 20
-7.15783
 11
45.4573
 21
-7.42008
  0
LINE
  8
0
 10
45.4573
 20
-7.42008
 11
45.8081
 21
-7.61698
  0
LINE
  8
0
 10
45.8081
 20
-7.61698
 11
46.3805
 21
-7.96628
  0
LINE
  8
0
 10
46.3805
 20
-7.96628
 11
46.6989
 21
-8.21217
  0
LINE
  8
0
 10
46.6989
 20
-8.21217
 11
47.2143
 21
-8.64109
  0
LINE
  8
0
 10
47.2143
 20
-8.64109
 11
47.4936
 21
-8.93072
  0
LINE
  8
0
 10
47.4936
 20
-8.93072
 11
47.941
 21
-9.43011
  0
LINE
  8
0
 10
47.941
 20
-9.43011
 11
48.1751
 21
-9.75731
  0
LINE
  8
0
 10
48.1751
 20
-9.75731
 11
48.5451
 21
-10.3165
  0
LINE
  8
0
 10
48.5451
 20
-10.3165
 11
48.7291
 21
-10.6743
  0
LINE
  8
0
 10
48.7291
 20
-10.6743
 11
49.0137
 21
-11.2815
  0
LINE
  8
0
 10
49.0137
 20
-11.2815
 11
49.1436
 21
-11.6622
  0
LINE
  8
0
 10
49.1436
 20
-11.6622
 11
49.3367
 21
-12.3043
  0
LINE
  8
0
 10
49.3367
 20
-12.3043
 11
49.4098
 21
-12.6999
  0
LINE
  8
0
 10
49.4098
 20
-12.6999
 11
49.5075
 21
-13.3633
  0
LINE
  8
0
 10
49.5075
 20
-13.3633
 11
49.5221
 21
-13.7654
  0
LINE
  8
0
 10
49.5221
 20
-13.7654
 11
49.5221
 21
-14.4359
  0
LINE
  8
0
 10
49.5221
 20
-14.4359
 11
49.4781
 21
-14.8358
  0
LINE
  8
0
 10
49.4781
 20
-14.8358
 11
49.3805
 21
-15.4992
  0
LINE
  8
0
 10
49.3805
 20
-15.4992
 11
49.2788
 21
-15.8884
  0
LINE
  8
0
 10
49.2788
 20
-15.8884
 11
49.0856
 21
-16.5305
  0
LINE
  8
0
 10
49.0856
 20
-16.5305
 11
48.9282
 21
-16.9008
  0
LINE
  8
0
 10
48.9282
 20
-16.9008
 11
48.6436
 21
-17.5079
  0
LINE
  8
0
 10
48.6436
 20
-17.5079
 11
48.434
 21
-17.8513
  0
LINE
  8
0
 10
48.434
 20
-17.8513
 11
48.0641
 21
-18.4106
  0
LINE
  8
0
 10
48.0641
 20
-18.4106
 11
47.8067
 21
-18.7198
  0
LINE
  8
0
 10
47.8067
 20
-18.7198
 11
47.3592
 21
-19.2192
  0
LINE
  8
0
 10
47.3592
 20
-19.2192
 11
47.0596
 21
-19.4877
  0
LINE
  8
0
 10
47.0596
 20
-19.4877
 11
46.5442
 21
-19.9166
  0
LINE
  8
0
 10
46.5442
 20
-19.9166
 11
46.2087
 21
-20.1386
  0
LINE
  8
0
 10
46.2087
 20
-20.1386
 11
45.6363
 21
-20.4879
  0
LINE
  8
0
 10
45.6363
 20
-20.4879
 11
45.272
 21
-20.6587
  0
LINE
  8
0
 10
45.272
 20
-20.6587
 11
44.6549
 21
-20.9209
  0
LINE
  8
0
 10
44.6549
 20
-20.9209
 11
44.2697
 21
-21.0368
  0
LINE
  8
0
 10
44.2697
 20
-21.0368
 11
43.6209
 21
-21.2064
  0
LINE
  8
0
 10
43.6209
 20
-21.2064
 11
43.2229
 21
-21.265
  0
LINE
  8
0
 10
43.2229
 20
-21.265
 11
42.5564
 21
-21.3383
  0
LINE
  8
0
 10
42.5564
 20
-21.3383
 11
42.1541
 21
-21.3383
  0
LINE
  8
0
 10
42.1541
 20
-21.3383
 11
41.484
 21
-21.3138
  0
LINE
  8
0
 10
41.484
 20
-21.3138
 11
41.086
 21
-21.2553
  0
LINE
  8
0
 10
41.086
 20
-21.2553
 11
40.4266
 21
-21.1335
  0
LINE
  8
0
 10
40.4266
 20
-21.1335
 11
40.0413
 21
-21.0176
  0
LINE
  8
0
 10
40.0413
 20
-21.0176
 11
39.4067
 21
-20.8011
  0
LINE
  8
0
 10
39.4067
 20
-20.8011
 11
39.0424
 21
-20.6303
  0
LINE
  8
0
 10
39.0424
 20
-20.6303
 11
38.4461
 21
-20.3237
  0
LINE
  8
0
 10
38.4461
 20
-20.3237
 11
38.1106
 21
-20.1017
  0
LINE
  8
0
 10
38.1106
 20
-20.1017
 11
37.5653
 21
-19.7116
  0
LINE
  8
0
 10
37.5653
 20
-19.7116
 11
37.2656
 21
-19.4431
  0
LINE
  8
0
 10
37.2656
 20
-19.4431
 11
36.7829
 21
-18.9777
  0
LINE
  8
0
 10
36.7829
 20
-18.9777
 11
36.5255
 21
-18.6684
  0
LINE
  8
0
 10
36.5255
 20
-18.6684
 11
36.1157
 21
-18.1377
  0
LINE
  8
0
 10
36.1157
 20
-18.1377
 11
35.9062
 21
-17.7943
  0
LINE
  8
0
 10
35.9062
 20
-17.7943
 11
35.578
 21
-17.2096
  0
LINE
  8
0
 10
35.578
 20
-17.2096
 11
35.4206
 21
-16.8393
  0
LINE
  8
0
 10
35.4206
 20
-16.8393
 11
35.1811
 21
-16.213
  0
LINE
  8
0
 10
35.1811
 20
-16.213
 11
35.0793
 21
-15.8238
  0
LINE
  8
0
 10
35.0793
 20
-15.8238
 11
34.9335
 21
-15.1693
  0
LINE
  8
0
 10
34.9335
 20
-15.1693
 11
34.8895
 21
-14.7694
  0
LINE
  8
0
 10
34.8895
 20
-14.7694
 11
34.8406
 21
-14.1006
  0
LINE
  8
0
 10
54.7
 20
-22
 11
54.7613
 21
-21.5341
  0
LINE
  8
0
 10
54.7613
 20
-21.5341
 11
54.9412
 21
-21.1
  0
LINE
  8
0
 10
54.9412
 20
-21.1
 11
55.2272
 21
-20.7272
  0
LINE
  8
0
 10
55.2272
 20
-20.7272
 11
55.6
 21
-20.4412
  0
LINE
  8
0
 10
55.6
 20
-20.4412
 11
56.0341
 21
-20.2613
  0
LINE
  8
0
 10
56.0341
 20
-20.2613
 11
56.5
 21
-20.2
  0
LINE
  8
0
 10
56.5
 20
-20.2
 11
56.9659
 21
-20.2613
  0
LINE
  8
0
 10
56.9659
 20
-20.2613
 11
57.4
 21
-20.4412
  0
LINE
  8
0
 10
57.4
 20
-20.4412
 11
57.7728
 21
-20.7272
  0
LINE
  8
0
 10
57.7728
 20
-20.7272
 11
58.0588
 21
-21.1
  0
LINE
  8
0
 10
58.0588
 20
-21.1
 11
58.2387
 21
-21.5341
  0
LINE
  8
0
 10
58.2387
 20
-21.5341
 11
58.3
 21
-22
  0
LINE
  8
0
 10
58.3
 20
-22
 11
58.2387
 21
-22.4659
  0
LINE
  8
0
 10
58.2387
 20
-22.4659
 11
58.0588
 21
-22.9
  0
LINE
  8
0
 10
58.0588
 20
-22.9
 11
57.7728
 21
-23.2728
  0
LINE
  8
0
 10
57.7728
 20
-23.2728
 11
57.4
 21
-23.5588
  0
LINE
  8
0
 10
57.4
 20
-23.5588
 11
56.9659
 21
-23.7387
  0
LINE
  8
0
 10
56.9659
 20
-23.7387
 11
56.5
 21
-23.8
  0
LINE
  8
0
 10
56.5
 20
-23.8
 11
56.0341
 21
-23.7387
  0
LINE
  8
0
 10
56.0341
 20
-23.7387
 11
55.6
 21
-23.5588
  0
LINE
  8
0
 10
55.6
 20
-23.5588
 11
55.2272
 21
-23.2728
  0
LINE
  8
0
 10
55.2272
 20
-23.2728
 11
54.9412
 21
-22.9
  0
LINE
  8
0
 10
54.9412
 20
-22.9
 11
54.7613
 21
-22.4659
  0
LINE
  8
0
 10
54.7613
 20
-22.4659
 11
54.7
 21
-22
  0
LINE
  8
0
 10
54.7
 20
22
 11
54.7613
 21
22.4659
  0
LINE
  8
0
 10
54.7613
 20
22.4659
 11
54.9412
 21
22.9
  0
LINE
  8
0
 10
54.9412
 20
22.9
 11
55.2272
 21
23.2728
  0
LINE
  8
0
 10
55.2272
 20
23.2728
 11
55.6
 21
23.5588
  0
LINE
  8
0
 10
55.6
 20
23.5588
 11
56.0341
 21
23.7387
  0
LINE
  8
0
 10
56.0341
 20
23.7387
 11
56.5
 21
23.8
  0
LINE
  8
0
 10
56.5
 20
23.8
 11
56.9659
 21
23.7387
  0
LINE
  8
0
 10
56.9659
 20
23.7387
 11
57.4
 21
23.5588
  0
LINE
  8
0
 10
57.4
 20
23.5588
 11
57.7728
 21
23.2728
  0
LINE
  8
0
 10
57.7728
 20
23.2728
 11
58.0588
 21
22.9
  0
LINE
  8
0
 10
58.0588
 20
22.9
 11
58.2387
 21
22.4659
  0
LINE
  8
0
 10
58.2387
 20
22.4659
 11
58.3
 21
22
  0
LINE
  8
0
 10
58.3
 20
22
 11
58.2387
 21
21.5341
  0
LINE
  8
0
 10
58.2387
 20
21.5341
 11
58.0588
 21
21.1
  0
LINE
  8
0
 10
58.0588
 20
21.1
 11
57.7728
 21
20.7272
  0
LINE
  8
0
 10
57.7728
 20
20.7272
 11
57.4
 21
20.4412
  0
LINE
  8
0
 10
57.4
 20
20.4412
 11
56.9659
 21
20.2613
  0
LINE
  8
0
 10
56.9659
 20
20.2613
 11
56.5
 21
20.2
  0
LINE
  8
0
 10
56.5
 20
20.2
 11
56.0341
 21
20.2613
  0
LINE
  8
0
 10
56.0341
 20
20.2613
 11
55.6
 21
20.4412
  0
LINE
  8
0
 10
55.6
 20
20.4412
 11
55.2272
 21
20.7272
  0
LINE
  8
0
 10
55.2272
 20
20.7272
 11
54.9412
 21
21.1
  0
LINE
  8
0
 10
54.9412
 20
21.1
 11
54.7613
 21
21.5341
  0
LINE
  8
0
 10
54.7613
 20
21.5341
 11
54.7
 21
22
  0
ENDSEC
  0
SECTION
  2
OBJECTS
  0
DICTIONARY
  0
ENDSEC
  0
EOF
