<?xml version="1.0" standalone="no"?>
<!DOCTYPE svg PUBLIC "-//W3C//DTD SVG 1.1//EN" "http://www.w3.org/Graphics/SVG/1.1/DTD/svg11.dtd">
<svg width="118mm" height="50mm" viewBox="-59 -25 118 50" xmlns="http://www.w3.org/2000/svg" version="1.1">
<title>OpenSCAD Model</title>
<path d="
M -59,24.5 L 59,24.5 L 59,-24.5 L -59,-24.5 z
M -58.3,22 L -58.2387,21.5341 L -58.0588,21.1 L -57.7728,20.7272 L -57.4,20.4412 L -56.9659,20.2613
 L -56.5,20.2 L -56.0341,20.2613 L -55.6,20.4412 L -55.2272,20.7272 L -54.9412,21.1 L -54.7613,21.5341
 L -54.7,22 L -54.7613,22.4659 L -54.9412,22.9 L -55.2272,23.2728 L -55.6,23.5588 L -56.0341,23.7387
 L -56.5,23.8 L -56.9659,23.7387 L -57.4,23.5588 L -57.7728,23.2728 L -58.0588,22.9 L -58.2387,22.4659
 z
M -58.3,-22 L -58.2387,-22.4659 L -58.0588,-22.9 L -57.7728,-23.2728 L -57.4,-23.5588 L -56.9659,-23.7387
 L -56.5,-23.8 L -56.0341,-23.7387 L -55.6,-23.5588 L -55.2272,-23.2728 L -54.9412,-22.9 L -54.7613,-22.4659
 L -54.7,-22 L -54.7613,-21.5341 L -54.9412,-21.1 L -55.2272,-20.7272 L -55.6,-20.4412 L -56.0341,-20.2613
 L -56.5,-20.2 L -56.9659,-20.2613 L -57.4,-20.4412 L -57.7728,-20.7272 L -58.0588,-21.1 L -58.2387,-21.5341
 z
M -49.5344,14.1006 L -49.5197,13.6986 L -49.4708,13.0299 L -49.3977,12.6342 L -49.2519,11.9797 L -49.122,11.599
 L -48.8825,10.9727 L -48.6985,10.6149 L -48.3703,10.0302 L -48.1362,9.70296 L -47.7264,9.17224 L -47.4472,8.88261
 L -46.9645,8.41721 L -46.646,8.17132 L -46.1007,7.78117 L -45.7499,7.58427 L -45.1535,7.27768 L -44.7778,7.13396
 L -44.1432,6.91745 L -43.7505,6.82998 L -43.0911,6.70819 L -42.6898,6.67882 L -42.0198,6.65433 L -41.6185,6.6837
 L -40.952,6.75703 L -40.5593,6.84451 L -39.9106,7.01411 L -39.5348,7.15783 L -38.9177,7.42008 L -38.5669,7.61698
 L -37.9945,7.96628 L -37.6761,8.21217 L -37.1607,8.64109 L -36.8814,8.93072 L -36.434,9.43011 L -36.1999,9.75731
 L -35.8299,10.3165 L -35.6459,10.6743 L -35.3613,11.2815 L -35.2314,11.6622 L -35.0383,12.3043 L -34.9652,12.6999
 L -34.8675,13.3633 L -34.8529,13.7654 L -34.8529,14.4359 L -34.8969,14.8358 L -34.9945,15.4992 L -35.0962,15.8884
 L -35.2894,16.5305 L -35.4468,16.9008 L -35.7314,17.5079 L -35.941,17.8513 L -36.3109,18.4106 L -36.5683,18.7198
 L -37.0158,19.2192 L -37.3154,19.4877 L -37.8308,19.9166 L -38.1663,20.1386 L -38.7387,20.4879 L -39.103,20.6587
 L -39.7201,20.9209 L -40.1053,21.0368 L -40.7541,21.2064 L -41.1521,21.265 L -41.8186,21.3383 L -42.2209,21.3383
 L -42.891,21.3138 L -43.289,21.2553 L -43.9484,21.1335 L -44.3337,21.0176 L -44.9683,20.8011 L -45.3326,20.6303
 L -45.9289,20.3237 L -46.2644,20.1017 L -46.8097,19.7116 L -47.1094,19.4431 L -47.5921,18.9777 L -47.8495,18.6684
 L -48.2593,18.1377 L -48.4688,17.7943 L -48.797,17.2096 L -48.9544,16.8393 L -49.1939,16.213 L -49.2957,15.8238
 L -49.4415,15.1693 L -49.4855,14.7694 z
M -32.6594,14.1006 L -32.6447,13.6986 L -32.5958,13.0299 L -32.5227,12.6342 L -32.3769,11.9797 L -32.247,11.599
 L -32.0075,10.9727 L -31.8235,10.6149 L -31.4953,10.0302 L -31.2612,9.70296 L -30.8514,9.17224 L -30.5722,8.88261
 L -30.0895,8.41721 L -29.771,8.17132 L -29.2257,7.78117 L -28.8749,7.58427 L -28.2785,7.27768 L -27.9028,7.13396
 L -27.2681,6.91745 L -26.8755,6.82998 L -26.2161,6.70819 L -25.8148,6.67882 L -25.1448,6.65433 L -24.7435,6.6837
 L -24.077,6.75703 L -23.6843,6.84451 L -23.0356,7.01411 L -22.6598,7.15783 L -22.0427,7.42008 L -21.6919,7.61698
 L -21.1195,7.96628 L -20.8011,8.21217 L -20.2857,8.64109 L -20.0064,8.93072 L -19.559,9.43011 L -19.3249,9.75731
 L -18.9549,10.3165 L -18.7709,10.6743 L -18.4863,11.2815 L -18.3564,11.6622 L -18.1633,12.3043 L -18.0902,12.6999
 L -17.9926,13.3633 L -17.9779,13.7654 L -17.9779,14.4359 L -18.0219,14.8358 L -18.1195,15.4992 L -18.2212,15.8884
 L -18.4144,16.5305 L -18.5718,16.9008 L -18.8564,17.5079 L -19.066,17.8513 L -19.4359,18.4106 L -19.6933,18.7198
 L -20.1408,19.2192 L -20.4404,19.4877 L -20.9558,19.9166 L -21.2913,20.1386 L -21.8637,20.4879 L -22.228,20.6587
 L -22.8451,20.9209 L -23.2303,21.0368 L -23.8791,21.2064 L -24.2771,21.265 L -24.9436,21.3383 L -25.3459,21.3383
 L -26.016,21.3138 L -26.414,21.2553 L -27.0734,21.1335 L -27.4587,21.0176 L -28.0933,20.8011 L -28.4576,20.6303
 L -29.0539,20.3237 L -29.3894,20.1017 L -29.9347,19.7116 L -30.2344,19.4431 L -30.7171,18.9777 L -30.9745,18.6684
 L -31.3843,18.1377 L -31.5938,17.7943 L -31.922,17.2096 L -32.0794,16.8393 L -32.3189,16.213 L -32.4207,15.8238
 L -32.5665,15.1693 L -32.6105,14.7694 z
M -15.7844,14.1006 L -15.7697,13.6986 L -15.7208,13.0299 L -15.6477,12.6342 L -15.5019,11.9797 L -15.372,11.599
 L -15.1325,10.9727 L -14.9485,10.6149 L -14.6203,10.0302 L -14.3862,9.70296 L -13.9764,9.17224 L -13.6972,8.88261
 L -13.2145,8.41721 L -12.896,8.17132 L -12.3507,7.78117 L -11.9999,7.58427 L -11.4035,7.27768 L -11.0278,7.13396
 L -10.3931,6.91745 L -10.0005,6.82998 L -9.34108,6.70819 L -8.93984,6.67882 L -8.26976,6.65433 L -7.86851,6.6837
 L -7.202,6.75703 L -6.80931,6.84451 L -6.16059,7.01411 L -5.78482,7.15783 L -5.1677,7.42008 L -4.81686,7.61698
 L -4.2445,7.96628 L -3.92606,8.21217 L -3.41066,8.64109 L -3.13143,8.93072 L -2.68397,9.43011 L -2.44988,9.75731
 L -2.0799,10.3165 L -1.89594,10.6743 L -1.61133,11.2815 L -1.48143,11.6622 L -1.28826,12.3043 L -1.21518,12.6999
 L -1.11755,13.3633 L -1.10286,13.7654 L -1.10286,14.4359 L -1.14686,14.8358 L -1.24449,15.4992 L -1.34625,15.8884
 L -1.53943,16.5305 L -1.69677,16.9008 L -1.98138,17.5079 L -2.19097,17.8513 L -2.56094,18.4106 L -2.8183,18.7198
 L -3.26575,19.2192 L -3.56539,19.4877 L -4.08079,19.9166 L -4.41632,20.1386 L -4.98868,20.4879 L -5.35296,20.6587
 L -5.97008,20.9209 L -6.35533,21.0368 L -7.00406,21.2064 L -7.40209,21.265 L -8.0686,21.3383 L -8.47091,21.3383
 L -9.141,21.3138 L -9.53903,21.2553 L -10.1984,21.1335 L -10.5837,21.0176 L -11.2183,20.8011 L -11.5826,20.6303
 L -12.1789,20.3237 L -12.5144,20.1017 L -13.0598,19.7116 L -13.3594,19.4431 L -13.8421,18.9777 L -14.0995,18.6684
 L -14.5093,18.1377 L -14.7188,17.7943 L -15.047,17.2096 L -15.2044,16.8393 L -15.4439,16.213 L -15.5457,15.8238
 L -15.6914,15.1693 L -15.7355,14.7694 z
M -1.8,-0 L -1.73867,-0.465874 L -1.55885,-0.9 L -1.27279,-1.27279 L -0.9,-1.55885 L -0.465874,-1.73867
 L 0,-1.8 L 0.465874,-1.73867 L 0.9,-1.55885 L 1.27279,-1.27279 L 1.55885,-0.9 L 1.73867,-0.465874
 L 1.8,-0 L 1.73867,0.465874 L 1.55885,0.9 L 1.27279,1.27279 L 0.9,1.55885 L 0.465874,1.73867
 L 0,1.8 L -0.465874,1.73867 L -0.9,1.55885 L -1.27279,1.27279 L -1.55885,0.9 L -1.73867,0.465874
 z
M 1.0906,14.1006 L 1.1053,13.6986 L 1.15424,13.0299 L 1.22732,12.6342 L 1.37311,11.9797 L 1.50301,11.599
 L 1.74255,10.9727 L 1.9265,10.6149 L 2.25467,10.0302 L 2.48876,9.70296 L 2.89857,9.17224 L 3.17781,8.88261
 L 3.66053,8.41721 L 3.97896,8.17132 L 4.52429,7.78117 L 4.87513,7.58427 L 5.47146,7.27768 L 5.84723,7.13396
 L 6.48185,6.91745 L 6.87454,6.82998 L 7.53392,6.70819 L 7.93516,6.67882 L 8.60524,6.65433 L 9.00649,6.6837
 L 9.67299,6.75703 L 10.0657,6.84451 L 10.7144,7.01411 L 11.0902,7.15783 L 11.7073,7.42008 L 12.0581,7.61698
 L 12.6305,7.96628 L 12.9489,8.21217 L 13.4643,8.64109 L 13.7436,8.93072 L 14.191,9.43011 L 14.4251,9.75731
 L 14.7951,10.3165 L 14.9791,10.6743 L 15.2637,11.2815 L 15.3936,11.6622 L 15.5867,12.3043 L 15.6598,12.6999
 L 15.7575,13.3633 L 15.7721,13.7654 L 15.7721,14.4359 L 15.7281,14.8358 L 15.6305,15.4992 L 15.5288,15.8884
 L 15.3356,16.5305 L 15.1782,16.9008 L 14.8936,17.5079 L 14.684,17.8513 L 14.3141,18.4106 L 14.0567,18.7198
 L 13.6092,19.2192 L 13.3096,19.4877 L 12.7942,19.9166 L 12.4587,20.1386 L 11.8863,20.4879 L 11.522,20.6587
 L 10.9049,20.9209 L 10.5197,21.0368 L 9.87094,21.2064 L 9.47291,21.265 L 8.8064,21.3383 L 8.40409,21.3383
 L 7.734,21.3138 L 7.33597,21.2553 L 6.6766,21.1335 L 6.29134,21.0176 L 5.65672,20.8011 L 5.29245,20.6303
 L 4.69612,20.3237 L 4.36058,20.1017 L 3.81525,19.7116 L 3.51562,19.4431 L 3.0329,18.9777 L 2.77555,18.6684
 L 2.36574,18.1377 L 2.15615,17.7943 L 1.82799,17.2096 L 1.67064,16.8393 L 1.4311,16.213 L 1.32934,15.8238
 L 1.18355,15.1693 L 1.13955,14.7694 z
M 17.9656,14.1006 L 17.9803,13.6986 L 18.0292,13.0299 L 18.1023,12.6342 L 18.2481,11.9797 L 18.378,11.599
 L 18.6175,10.9727 L 18.8015,10.6149 L 19.1297,10.0302 L 19.3638,9.70296 L 19.7736,9.17224 L 20.0528,8.88261
 L 20.5355,8.41721 L 20.854,8.17132 L 21.3993,7.78117 L 21.7501,7.58427 L 22.3465,7.27768 L 22.7222,7.13396
 L 23.3569,6.91745 L 23.7495,6.82998 L 24.4089,6.70819 L 24.8102,6.67882 L 25.4802,6.65433 L 25.8815,6.6837
 L 26.548,6.75703 L 26.9407,6.84451 L 27.5894,7.01411 L 27.9652,7.15783 L 28.5823,7.42008 L 28.9331,7.61698
 L 29.5055,7.96628 L 29.8239,8.21217 L 30.3393,8.64109 L 30.6186,8.93072 L 31.066,9.43011 L 31.3001,9.75731
 L 31.6701,10.3165 L 31.8541,10.6743 L 32.1387,11.2815 L 32.2686,11.6622 L 32.4617,12.3043 L 32.5348,12.6999
 L 32.6325,13.3633 L 32.6471,13.7654 L 32.6471,14.4359 L 32.6031,14.8358 L 32.5055,15.4992 L 32.4038,15.8884
 L 32.2106,16.5305 L 32.0532,16.9008 L 31.7686,17.5079 L 31.559,17.8513 L 31.1891,18.4106 L 30.9317,18.7198
 L 30.4842,19.2192 L 30.1846,19.4877 L 29.6692,19.9166 L 29.3337,20.1386 L 28.7613,20.4879 L 28.397,20.6587
 L 27.7799,20.9209 L 27.3947,21.0368 L 26.7459,21.2064 L 26.3479,21.265 L 25.6814,21.3383 L 25.2791,21.3383
 L 24.609,21.3138 L 24.211,21.2553 L 23.5516,21.1335 L 23.1663,21.0176 L 22.5317,20.8011 L 22.1674,20.6303
 L 21.5711,20.3237 L 21.2356,20.1017 L 20.6903,19.7116 L 20.3906,19.4431 L 19.9079,18.9777 L 19.6505,18.6684
 L 19.2407,18.1377 L 19.0312,17.7943 L 18.703,17.2096 L 18.5456,16.8393 L 18.3061,16.213 L 18.2043,15.8238
 L 18.0586,15.1693 L 18.0145,14.7694 z
M 34.8406,14.1006 L 34.8553,13.6986 L 34.9042,13.0299 L 34.9773,12.6342 L 35.1231,11.9797 L 35.253,11.599
 L 35.4925,10.9727 L 35.6765,10.6149 L 36.0047,10.0302 L 36.2388,9.70296 L 36.6486,9.17224 L 36.9278,8.88261
 L 37.4105,8.41721 L 37.729,8.17132 L 38.2743,7.78117 L 38.6251,7.58427 L 39.2215,7.27768 L 39.5972,7.13396
 L 40.2318,6.91745 L 40.6245,6.82998 L 41.2839,6.70819 L 41.6852,6.67882 L 42.3552,6.65433 L 42.7565,6.6837
 L 43.423,6.75703 L 43.8157,6.84451 L 44.4644,7.01411 L 44.8402,7.15783 L 45.4573,7.42008 L 45.8081,7.61698
 L 46.3805,7.96628 L 46.6989,8.21217 L 47.2143,8.64109 L 47.4936,8.93072 L 47.941,9.43011 L 48.1751,9.75731
 L 48.5451,10.3165 L 48.7291,10.6743 L 49.0137,11.2815 L 49.1436,11.6622 L 49.3367,12.3043 L 49.4098,12.6999
 L 49.5075,13.3633 L 49.5221,13.7654 L 49.5221,14.4359 L 49.4781,14.8358 L 49.3805,15.4992 L 49.2788,15.8884
 L 49.0856,16.5305 L 48.9282,16.9008 L 48.6436,17.5079 L 48.434,17.8513 L 48.0641,18.4106 L 47.8067,18.7198
 L 47.3592,19.2192 L 47.0596,19.4877 L 46.5442,19.9166 L 46.2087,20.1386 L 45.6363,20.4879 L 45.272,20.6587
 L 44.6549,20.9209 L 44.2697,21.0368 L 43.6209,21.2064 L 43.2229,21.265 L 42.5564,21.3383 L 42.1541,21.3383
 L 41.484,21.3138 L 41.086,21.2553 L 40.4266,21.1335 L 40.0413,21.0176 L 39.4067,20.8011 L 39.0424,20.6303
 L 38.4461,20.3237 L 38.1106,20.1017 L 37.5653,19.7116 L 37.2656,19.4431 L 36.7829,18.9777 L 36.5255,18.6684
 L 36.1157,18.1377 L 35.9062,17.7943 L 35.578,17.2096 L 35.4206,16.8393 L 35.1811,16.213 L 35.0793,15.8238
 L 34.9335,15.1693 L 34.8895,14.7694 z
M 54.7,22 L 54.7613,21.5341 L 54.9412,21.1 L 55.2272,20.7272 L 55.6,20.4412 L 56.0341,20.2613
 L 56.5,20.2 L 56.9659,20.2613 L 57.4,20.4412 L 57.7728,20.7272 L 58.0588,21.1 L 58.2387,21.5341
 L 58.3,22 L 58.2387,22.4659 L 58.0588,22.9 L 57.7728,23.2728 L 57.4,23.5588 L 56.9659,23.7387
 L 56.5,23.8 L 56.0341,23.7387 L 55.6,23.5588 L 55.2272,23.2728 L 54.9412,22.9 L 54.7613,22.4659
 z
M 54.7,-22 L 54.7613,-22.4659 L 54.9412,-22.9 L 55.2272,-23.2728 L 55.6,-23.5588 L 56.0341,-23.7387
 L 56.5,-23.8 L 56.9659,-23.7387 L 57.4,-23.5588 L 57.7728,-23.2728 L 58.0588,-22.9 L 58.2387,-22.4659
 L 58.3,-22 L 58.2387,-21.5341 L 58.0588,-21.1 L 57.7728,-20.7272 L 57.4,-20.4412 L 56.9659,-20.2613
 L 56.5,-20.2 L 56.0341,-20.2613 L 55.6,-20.4412 L 55.2272,-20.7272 L 54.9412,-21.1 L 54.7613,-21.5341
 z
" stroke="black" fill="lightgray" stroke-width="0.5"/>
</svg>
